<?xml version="1.0" encoding="UTF-8"?>
<svg id="Layer_1" xmlns="http://www.w3.org/2000/svg" version="1.1" viewBox="0 0 628 134.6">
  <!-- Generator: Adobe Illustrator 29.8.3, SVG Export Plug-In . SVG Version: 2.1.1 Build 3)  -->
  <path d="M485.8,0c1.5-.1,2.9,0,4.4,0,0,1.7,0,3.5,0,5.2,4.4,0,8.8,0,13.1,0,0-1.7,0-3.5,0-5.2,1.5,0,3,0,4.5,0v5.2c4.4,0,8.8,0,13.1,0,0-1.7,0-3.5,0-5.2,1.5,0,3,0,4.5,0,0,1.7,0,3.5,0,5.2,1,0,2,0,3.1,0,0,9.6,0,19.2,0,28.8-21.2,0-42.4,0-63.6,0,0-9.6,0-19.2,0-28.8,1.2,0,2.3,0,3.5,0,0-1.7,0-3.5,0-5.2,1.5,0,3,0,4.5,0,0,1.7,0,3.5,0,5.2,4.2,0,8.5,0,12.7,0,0-1.7,0-3.4.1-5.1h0Z"/>
  <path d="M35.7,14.9c6.7.3,12.7,2.8,18,6.7-1.5,2.4-3,4.9-4.6,7.3-6-4.9-13.8-6.9-21.4-5.4-4.8,1.1-8.7,4.6-10.5,9.2-2.6,6-2,12.4-2.1,18.8,0,5.3.6,10.5,3.5,15.1,2.2,3.5,6,6,10.1,6.6,7.8,1.1,15.9-.9,21.7-6.5,1.6,2.3,3.2,4.6,4.8,6.8-3.7,3.3-7.7,5.9-12.6,7-7.3,1.8-15.9,2-22.8-1.2-5.9-2.7-10-7.9-12-14.1-2.3-6.8-1.7-14.6-1.7-21.8,0-8.1,1.8-16,7.6-21.9,5.9-5.8,13.9-7.3,21.9-6.7h0Z"/>
  <path d="M620.9,21.6c-1.5,2.5-3,4.9-4.6,7.3-6.1-5-14-7.1-21.7-5.3-4.6,1.1-8.2,4.4-10.1,8.7-2.8,6.2-2.2,13.5-2.2,20.1.1,6.4,1.4,13.4,6.7,17.6,5.2,4.2,12.5,3.8,18.6,2.3,3.9-.9,7-3.1,10-5.7,1.6,2.3,3.2,4.6,4.9,6.8-7.5,7.2-17.8,9.1-27.8,7.9-5.6-.8-10.9-3.1-14.6-7.4-5-5.8-6.6-13.1-6.7-20.6,0-8.6-.8-17.2,3-25.2,2.9-6.4,8.5-10.9,15.4-12.6,10.1-2.3,21-.5,29.2,5.9h0Z"/>
  <path d="M66.1,15.8c2.9-.2,5.9,0,8.9,0,0,19.1,0,38.3,0,57.4,10.4,0,20.8,0,31.2,0,0,2.6,0,5.1,0,7.7-13.4,0-26.7,0-40.1,0,0-21.6-.1-43.4,0-65h0Z"/>
  <path d="M115.5,15.7c3,0,6,0,8.9,0,0,21.7,0,43.4,0,65.1-3,0-6,0-8.9,0,0-21.7,0-43.4,0-65.1h0Z"/>
  <path d="M139.3,15.7c4.4,0,8.8,0,13.2,0,6,14.2,12.1,28.4,18.1,42.6,5.9-14.2,11.8-28.4,17.6-42.6,4.4,0,8.8,0,13.1,0,0,21.7,0,43.4,0,65.1-2.8,0-5.7,0-8.6,0,0-15.8,0-31.6,0-47.3,0-2.8-.1-5.6-.3-8.3-.7,2.9-1.5,5.7-2.7,8.5-5.2,12.1-10.4,24.2-15.7,36.3-2.5,0-5,0-7.5,0-5.1-12-10.2-24-15.3-36-1.3-3-2.3-6.1-3.4-9.1,0,18.7,0,37.3,0,56-2.8,0-5.7,0-8.5,0,0-21.7,0-43.4,0-65.1h0Z"/>
  <path d="M266.4,15.8c16.1-.2,32.4,0,48.6,0,0,2.5,0,5.1,0,7.6h-19.9c0,19.2,0,38.3,0,57.5h-8.9c0-19.1,0-38.3,0-57.5-6.6,0-13.2,0-19.9,0,0-2.5-.1-5,0-7.5h0Z"/>
  <path d="M381.3,15.7c3,0,6,0,8.9,0,0,19.1,0,38.3,0,57.4,10.4,0,20.8,0,31.2,0v7.7c-13.4,0-26.7,0-40.1,0,0-21.7,0-43.4,0-65.1h0Z"/>
  <path d="M234.7,15.7c2.9,0,5.8,0,8.6,0,8.1,21.7,16.2,43.4,24.3,65.1-3.1,0-6.2,0-9.3,0-2.3-6.4-4.6-12.8-6.9-19.1-8.3,0-16.6,0-25,0-2.3,6.4-4.6,12.8-6.9,19.1-3,0-6.1,0-9.1,0,7.7-20.8,15.4-41.5,23.1-62.3.3-.9.7-1.9,1-2.8h0ZM238.9,25.6c-2.7,9.7-6.4,18.9-9.7,28.4,6.5,0,13,0,19.5,0-3.2-9.5-6.9-18.8-9.8-28.4h0Z"/>
  <path d="M434,31.1c1.5-.1,3,0,4.4-.1,0,1.7,0,3.5,0,5.2,5.5,0,11.1,0,16.6,0,0-1.7,0-3.4,0-5.2,1.5,0,3,0,4.5,0,0,1.7,0,3.5,0,5.2,11.6,0,23.2,0,34.8,0v28.8c-21.2,0-42.5,0-63.7,0,0-9.6,0-19.2,0-28.8,1,0,2.1,0,3.1,0,0-1.7,0-3.4.1-5.1h0Z"/>
  <path d="M553,31.1c1.5-.1,3,0,4.4-.1v5.2c1.1,0,2.1,0,3.2,0,0,9.6,0,19.2,0,28.8-21.2,0-42.5,0-63.7,0,0-9.6,0-19.2,0-28.8,12.5,0,24.9,0,37.4,0,0-1.7,0-3.5,0-5.2,1.5,0,3,0,4.5,0,0,1.7,0,3.5,0,5.2,4.7,0,9.4,0,14.1,0,0-1.7,0-3.4.1-5.1h0Z"/>
  <path d="M323.9,15.8c7.9-.2,15.9,0,23.8,0,5.6,0,12.3,1.1,16.4,5.4,4,4.2,4.2,11.6,2.9,16.8-1.4,4.7-5.1,7-9.5,8.5,4.1,1,7.8,2.4,10.4,5.8,2.9,3.6,2.9,8.8,2.6,13.2-.3,4.6-2.4,9-6.2,11.7-4.3,3-9.5,3.6-14.6,3.6-8.6,0-17.2,0-25.8,0,0-21.6,0-43.4,0-65h0ZM349.7,23.6c-5.6-.4-11.3-.2-16.9-.2,0,6.6,0,13.2,0,19.8,5.3,0,10.6.2,15.9-.2,3-.3,6.1-.9,8.1-3.4,1.7-2.1,1.7-4.5,1.8-7.1,0-2.1,0-4.6-1.5-6.3-1.8-2-4.8-2.4-7.3-2.6h0ZM332.7,50.5c0,7.5,0,15.1,0,22.6,5.9,0,11.9.2,17.9-.2,3.2-.3,6.9-.7,9-3.4,1.9-2.3,1.8-5.2,1.8-8-.1-2.6-.4-5.4-2.3-7.4-2.4-2.4-6.2-3.1-9.4-3.4-5.6-.4-11.3-.2-16.9-.2h0Z"/>
  <path d="M465,67.3c21.2-.1,42.5,0,63.7,0,0,9.6,0,19.2,0,28.9-21.2,0-42.4,0-63.6,0,0-9.6,0-19.2,0-28.8h0Z"/>
  <path d="M.2,112.9c5.3-.2,10.6,0,15.9,0,0,.8,0,1.6,0,2.5-2.2,0-4.4,0-6.5,0,0,6.3,0,12.7,0,19-1,0-1.9,0-2.9,0,0-6.3,0-12.7,0-19-2.2,0-4.5,0-6.7,0,0-.8.2-1.6.2-2.4H.2Z"/>
  <path d="M21.2,112.9c1,0,1.9-.2,2.9-.2v9.1c3.3,0,6.7,0,10,0,0-3,0-6,0-9,1,0,2,0,2.9,0,0,7.1,0,14.3,0,21.4-1,0-2,0-2.9,0,0-3.3,0-6.6,0-9.9-3.3,0-6.7,0-10,0,0,3.3,0,6.6,0,9.9-1,0-2,0-2.9,0,0-7.1-.1-14.2,0-21.3h0Z"/>
  <path d="M43.9,112.8c4.4-.2,8.9,0,13.3,0,0,.8,0,1.7,0,2.5h-10.4c0,2.2,0,4.5,0,6.7,3.3,0,6.5,0,9.8,0,0,.8,0,1.7,0,2.5-3.3,0-6.6,0-9.8,0,0,2.4,0,4.8,0,7.2,3.5,0,7.1,0,10.6,0v2.5c-4.5,0-9,0-13.6,0,0-7.1-.1-14.3,0-21.4h0Z"/>
  <path d="M73.3,112.8c4.4,0,8.9,0,13.3,0,0,.8,0,1.7,0,2.5-3.5,0-6.9,0-10.4,0v7.2c3.2,0,6.5,0,9.8,0,0,.8,0,1.7,0,2.5-3.2,0-6.5,0-9.7,0v9.2c-1,0-2,0-2.9,0,0-7.1,0-14.3,0-21.5h0Z"/>
  <path d="M105.4,112.7c1,0,1.9,0,2.9,0-.2,5.6.5,11.5-.5,16.9-1.3,5.1-7.2,5.7-11.4,4.2-2.6-1.1-3.7-3.7-3.9-6.3-.3-4.9,0-9.9-.1-14.8h2.9c0,4.5-.1,9,0,13.5.1,2,.5,4.1,2.4,5.1,2.6,1.1,6.3.6,7.2-2.5,1-5.1.2-10.6.5-15.8v-.5h0Z"/>
  <path d="M113.3,112.9c5.3-.2,10.6,0,15.9,0,0,.8,0,1.6,0,2.5-2.2,0-4.4,0-6.5,0,0,6.3,0,12.6,0,19-1,0-1.9,0-2.9,0,0-6.3,0-12.7,0-19-2.2,0-4.5,0-6.7,0,0-.8.2-1.6.3-2.4h0Z"/>
  <path d="M133.9,112.8c1,0,2,0,2.9,0,.2,5.2-.3,10.4.3,15.5.5,4,6.1,4.7,8.5,2.2,1-1.3,1.2-3.4,1.3-5,0-4.3,0-8.5,0-12.8h2.9c-.3,5.7.6,11.8-.7,17.3-1.4,4.7-6.8,5.2-10.8,4-2.9-1-4.2-3.7-4.4-6.5-.3-4.9,0-9.9-.1-14.8h0Z"/>
  <path d="M177.9,112.8c4.4-.2,8.9,0,13.3,0,0,.8,0,1.7,0,2.5h-10.4c0,2.2,0,4.5,0,6.7,3.3,0,6.5,0,9.8,0,0,.8,0,1.7,0,2.5-3.3,0-6.5,0-9.8,0,0,2.4,0,4.8,0,7.2,3.6,0,7.1,0,10.6,0,0,.8,0,1.7,0,2.5h-13.6c0-7.1-.1-14.3,0-21.4h0Z"/>
  <path d="M230.4,112.8c4.4,0,8.9,0,13.3,0v2.5c-3.5,0-6.9,0-10.4,0,0,2.4,0,4.8,0,7.2,3.2,0,6.5,0,9.8,0,0,.8,0,1.7,0,2.5-3.3,0-6.5,0-9.7,0,0,3.1,0,6.2,0,9.2-1,0-2,0-2.9,0,0-7.2,0-14.3,0-21.5h0Z"/>
  <path d="M272.5,114.2l-1.4,2c-2.9-.6-5.3-2-8.2-.5-1.9.9-2.2,3.7-.5,4.9,2.6,1.4,6.2,1.6,8.7,3.2,3.4,2.3,2.5,8.4-1.3,9.8-4.1,1.7-8.2.6-11.9-1.6l1.5-2.4c3,1.4,5.6,3,9,1.6,2.1-1,2.5-4,.6-5.4-2.7-1.5-6.3-1.5-8.8-3.3-2.9-2.1-2.5-7.2.6-9,3.8-2.3,7.8-1.3,11.6.5h0Z"/>
  <path d="M315.2,114.2l-1.3,2.2c-2.7-1-5.1-2-7.9-.7-2.1.7-2.5,4-.5,5.1,2.7,1.4,6.3,1.5,8.7,3.3,3.1,2.3,2.4,8.2-1.3,9.6-4.2,1.8-8.1.7-12-1.4.4-.8.9-1.7,1.4-2.5,3,1.4,5.8,3.1,9.2,1.5,2.2-1.1,2.2-4.6,0-5.6-2.5-1.1-5.8-1.4-8.1-2.9-3.1-2.1-2.7-7.5.6-9.2,3.8-2.1,7.6-1.2,11.3.5h0Z"/>
  <path d="M320.2,112.9c5.3-.2,10.6,0,15.9,0,0,.8,0,1.6,0,2.5-2.2,0-4.4,0-6.5,0,0,6.3,0,12.6,0,19-1,0-2,0-2.9,0,0-6.3,0-12.6,0-19-2.2,0-4.5,0-6.7,0,0-.8.1-1.6.2-2.4h0Z"/>
  <path d="M361.6,112.8c1,0,2,0,2.9,0,0,7.2,0,14.3,0,21.5-1,0-2,0-2.9,0,0-7.2,0-14.3,0-21.5h0Z"/>
  <path d="M371.6,112.7c1.1,0,2.2,0,3.4.1,3.4,5.8,6.8,11.6,9.9,17.5,0-5.8,0-11.7,0-17.6.9,0,1.8,0,2.7,0,0,7.2,0,14.3,0,21.5-1.2,0-2.3,0-3.4,0-3.2-5.9-6.9-11.5-9.9-17.5,0,5.9,0,11.7,0,17.6h-2.7c0-7.2,0-14.4,0-21.6h0Z"/>
  <path d="M437.6,112.8h2.9c0,6.3,0,12.6,0,19,3.4,0,6.9,0,10.3,0,0,.8,0,1.7,0,2.5-4.4,0-8.8,0-13.2,0,0-7.1,0-14.3,0-21.5h0Z"/>
  <path d="M455.9,112.8c4.4-.2,8.9,0,13.3,0v2.5c-3.5,0-6.9,0-10.4,0,0,2.2,0,4.5,0,6.7,3.3,0,6.5,0,9.8,0,0,.8,0,1.7,0,2.5-3.3,0-6.5,0-9.8,0v7.2c3.5,0,7.1,0,10.6,0,0,.8,0,1.7,0,2.5-4.5,0-9,0-13.6,0,0-7.1-.1-14.3,0-21.4h0Z"/>
  <path d="M528.6,112.8c1,0,1.9,0,2.9,0,0,7.2,0,14.4,0,21.5-1,0-2,0-2.9,0,0-7.1,0-14.3,0-21.4h0Z"/>
  <path d="M538.6,112.8c1,0,1.9,0,2.9,0,0,6.3,0,12.6,0,19,3.4,0,6.9,0,10.3,0v2.5c-4.4,0-8.8,0-13.2,0,0-7.2,0-14.3,0-21.5h0Z"/>
  <path d="M579.4,112.7c1,0,1.9,0,2.9,0v21.5c-1,0-2,0-2.9,0,0-7.2,0-14.4,0-21.5h0Z"/>
  <path d="M589.2,112.8c1.1,0,2.2-.1,3.2,0,3.4,5.8,6.9,11.6,10,17.6-.1-5.9,0-11.7,0-17.6h2.8c0,7.2,0,14.3,0,21.5-1.1,0-2.3,0-3.4,0-3.3-5.9-6.9-11.6-9.9-17.5.1,5.8,0,11.7,0,17.5-.9,0-1.8,0-2.7,0,0-7.1-.1-14.3,0-21.4h0Z"/>
  <path d="M627.5,114.5c-.5.8-.9,1.6-1.4,2.4-3-1.5-5.8-2.7-9.1-1-2.7,1.6-2.7,4.8-2.7,7.5,0,2.8.1,5.9,2.8,7.5,2.6,1.6,5.1.7,7.9.2,0-2.1,0-4.1,0-6.2-1.6,0-3.2,0-4.8,0v-2.5h7.7c0,3.4,0,6.9,0,10.3-5,2.5-13.1,3.1-15.7-3.1-1.2-3.7-1.3-9.6.3-13.2,3-5.4,10.3-4.8,14.9-2h0Z"/>
  <path d="M278.9,112.7h2.9c.1,5.2-.4,10.5.3,15.6.6,3.8,5.3,4.6,8.1,2.6,1.5-1.2,1.6-3.7,1.7-5.5,0-4.3,0-8.5,0-12.7h2.9c-.3,5.7.7,12-.7,17.5-1.6,4.5-6.8,4.9-10.7,3.8-2.9-1-4.2-3.7-4.4-6.5-.3-4.9,0-9.9-.1-14.8h0Z"/>
  <path d="M505.9,112.7h2.9c.1,5.2-.3,10.5.3,15.6.5,4,6.1,4.7,8.5,2.2,1.2-1.7,1.2-4,1.3-6,0-3.9,0-7.9,0-11.8h2.9c-.3,5.7.6,11.8-.7,17.3-1.5,4.7-6.8,5.1-10.8,4-2.9-1-4.1-3.7-4.4-6.5-.3-4.9,0-9.9-.1-14.8h0Z"/>
  <path d="M556.9,112.8c3.5-.1,7.4-.4,10.9.5,3.6,1.2,5,4.5,5.2,8.1.1,4.2.3,9.1-3.8,11.6-3.5,1.9-8.5,1-12.4,1.2,0-7.1-.1-14.3,0-21.4h0ZM559.9,115.4c-.2,5.4,0,10.9,0,16.3,3.1-.2,7.5.6,9.3-2.7,1.3-2.9,1.2-7.3.3-10.3-1.5-3.9-6.1-3.4-9.5-3.3h0Z"/>
  <path d="M156.6,112.8c3.8.2,9.1-.9,12.4,1.3,3.7,3,2.7,8.5-1.3,10.8,1.4,3.1,2.8,6.2,4.1,9.3h-3.1c-1.3-3-2.6-6-3.9-9-1.8,0-3.5,0-5.3,0,0,3,0,6,0,9-1,0-2,0-2.9,0,0-7.2,0-14.3,0-21.5h0ZM159.5,115.2c0,2.5,0,5.1,0,7.6,2.2,0,4.8.2,6.9-.5,2.8-1.1,2.4-6.6-.9-6.9-2-.3-4-.2-6.1-.2h0Z"/>
  <path d="M212.8,112.7c4.3-1,9,.7,10.4,5.2.9,3.7,1,8.5-.3,12-2.5,6-12.5,6.2-15.3.5-1.6-3.2-1.3-7.4-.9-10.9.5-3.4,2.8-6,6.2-6.8h0ZM212.1,115.9c-2.3,1.5-2.6,4.1-2.7,6.6,0,2.4,0,5.7,1.6,7.7,2.6,3,8.3,2.2,9.4-1.8.8-2.7.8-6.9,0-9.6-1.1-3.5-5.3-4.5-8.3-2.8h0Z"/>
  <path d="M345.8,112.9c.9,0,1.8-.1,2.7-.1,2.8,7.2,5.4,14.4,8.1,21.6-1.1,0-2.1-.1-3.2-.1-.7-2.1-1.4-4.2-2.2-6.3-2.8,0-5.5,0-8.3,0-.7,2.1-1.4,4.2-2.3,6.2l-2.9.3c2.7-7.2,5.2-14.5,8.1-21.5h0ZM347.1,116.1c-.3,1-.6,1.9-.9,2.9-.7,2.2-1.5,4.3-2.2,6.4h6.5c-1.1-3.1-2.2-6.2-3.3-9.3h0Z"/>
  <path d="M400.5,112.9c.9-.1,1.8-.1,2.7-.2,2.8,7.1,5.3,14.4,8.1,21.5-1,0-2.1,0-3.1,0-.8-2.1-1.5-4.2-2.3-6.3-2.8,0-5.5,0-8.2,0-.7,2.1-1.5,4.2-2.3,6.4-1,0-2,0-3,0,2.7-7.1,5.2-14.3,8-21.4h0ZM401.9,116.1c-1,3.2-2.1,6.2-3.2,9.3h6.5c-1.1-3.1-2.2-6.2-3.3-9.3h0Z"/>
  <path d="M416.6,112.8c3.6,0,7.5-.4,11.1.5,4.4,1.3,4.6,8.1.3,9.7,5.3,1.2,5.5,8.8.9,10.7-3.8,1.1-8.3.4-12.2.6,0-7.2,0-14.3,0-21.5h0ZM419.5,115.2c0,2.2,0,4.4,0,6.6,2.2-.1,4.8.2,7-.5,1.9-.5,2.1-4.4.7-5.4-2.3-1-5.2-.6-7.7-.7h0ZM419.5,124.2c0,2.5,0,5,0,7.5,2.7-.1,6.1.4,8.6-.8,1.3-1.3,1.3-4.6-.1-5.8-2.4-1.3-5.8-.8-8.4-1h0Z"/>
  <path d="M485.2,112.9c3.6-.1,7.4-.4,11,.4,4.4,1.3,4.5,7.8.5,9.8,5.4,1.2,5.2,9.6,0,10.9-3.8.7-7.8.3-11.6.4,0-7.1-.1-14.3,0-21.4h0ZM488,115.2c0,2.2,0,4.4,0,6.7,2.4-.2,6,.5,7.9-1.1.8-1.3.8-3.3,0-4.7-2.2-1.2-5.5-.7-8-.9h0ZM488,124.2c0,2.5,0,5,0,7.6,2.5,0,5.1.2,7.5-.4,2.5-.3,2.4-4.5,1.2-6-2.2-1.7-6.1-1-8.7-1.2h0Z"/>
</svg>