<?xml version="1.0" encoding="UTF-8"?>
<svg id="Layer_1" data-name="Layer 1" xmlns="http://www.w3.org/2000/svg" viewBox="0 0 627.95 134.6">
  <defs>
    <style>
      .cls-1 {
        fill: #cfb500;
      }

      .cls-2 {
        fill: #67823a;
      }
    </style>
  </defs>
  <path class="cls-1" d="M485.83.09c1.46-.1,2.94-.08,4.41-.09.01,1.75.01,3.49.02,5.23,4.38,0,8.75,0,13.12,0,0-1.74.01-3.47.01-5.21,1.51.01,3.01.01,4.51,0v5.2c4.37,0,8.75,0,13.12,0,.01-1.74.01-3.47.02-5.21,1.5,0,2.99-.01,4.48-.02.02,1.74.03,3.48.05,5.22,1.01,0,2.03,0,3.05-.01.05,9.61.04,19.23,0,28.84-21.2-.01-42.39-.01-63.59,0-.03-9.6.01-19.2-.02-28.8,1.16-.02,2.32-.03,3.47-.05,0-1.73,0-3.45,0-5.18,1.51.01,3.01.01,4.52,0-.01,1.73-.01,3.46-.01,5.19,4.23.02,8.47.02,12.7.01.03-1.71-.02-3.44.13-5.14h0Z"/>
  <path class="cls-2" d="M35.66,14.86c6.66.3,12.7,2.78,18.02,6.74-1.52,2.44-3.05,4.87-4.59,7.3-6.04-4.93-13.77-6.95-21.44-5.36-4.82,1.09-8.67,4.63-10.51,9.16-2.56,6.05-2,12.37-2.06,18.79.03,5.28.61,10.51,3.48,15.07,2.22,3.55,5.98,5.97,10.1,6.65,7.83,1.1,15.92-.95,21.73-6.48,1.59,2.29,3.21,4.56,4.83,6.83-3.67,3.28-7.73,5.87-12.58,6.99-7.26,1.77-15.9,1.98-22.81-1.22-5.91-2.68-10.01-7.95-12.01-14.05-2.32-6.84-1.66-14.58-1.74-21.79,0-8.09,1.8-16,7.64-21.91,5.89-5.82,13.92-7.34,21.94-6.72h0Z"/>
  <path class="cls-2" d="M620.91,21.62c-1.51,2.45-3.04,4.88-4.55,7.31-6.08-4.98-14.02-7.06-21.72-5.31-4.59,1.1-8.23,4.44-10.09,8.73-2.79,6.18-2.19,13.5-2.21,20.14.1,6.39,1.43,13.41,6.67,17.65,5.15,4.24,12.54,3.84,18.63,2.28,3.88-.94,7.01-3.12,9.98-5.69,1.61,2.28,3.23,4.56,4.85,6.83-7.53,7.2-17.75,9.07-27.83,7.93-5.6-.76-10.87-3.08-14.63-7.41-5.02-5.78-6.62-13.1-6.68-20.59.09-8.64-.84-17.2,2.98-25.22,2.94-6.4,8.54-10.93,15.37-12.6,10.09-2.26,20.99-.52,29.23,5.95h0Z"/>
  <path class="cls-2" d="M66.12,15.8c2.95-.22,5.93-.04,8.88-.05-.01,19.14,0,38.28-.01,57.42,10.38,0,20.77.02,31.15-.02,0,2.56,0,5.13,0,7.69-13.36-.02-26.71,0-40.06-.01.03-21.63-.1-43.41.05-65.03h0Z"/>
  <path class="cls-2" d="M115.54,15.74c2.98,0,5.96,0,8.94-.02,0,21.7-.01,43.4.01,65.1-2.98,0-5.96,0-8.93,0-.03-21.7-.01-43.4-.02-65.09h0Z"/>
  <path class="cls-2" d="M139.3,15.72c4.39,0,8.79,0,13.18,0,6.03,14.21,12.05,28.43,18.08,42.65,5.86-14.22,11.77-28.41,17.59-42.64,4.38,0,8.75-.02,13.13,0-.03,21.7.01,43.41-.03,65.11-2.85,0-5.71-.01-8.56-.01.04-15.78,0-31.56.03-47.34,0-2.78-.15-5.55-.34-8.32-.67,2.9-1.46,5.74-2.66,8.47-5.24,12.1-10.42,24.23-15.66,36.33-2.51,0-5.02.01-7.54.02-5.13-12-10.21-24.02-15.33-36.02-1.28-2.99-2.33-6.05-3.38-9.11-.03,18.65.01,37.31-.02,55.97-2.83.01-5.67,0-8.5,0,.02-21.7.01-43.4.01-65.1h0Z"/>
  <path class="cls-2" d="M266.43,15.81c16.15-.19,32.43-.03,48.6-.08-.02,2.55,0,5.09,0,7.63h-19.87c-.02,19.16,0,38.31-.02,57.47h-8.93c.02-19.15.02-38.31,0-57.47-6.63,0-13.25.01-19.88,0,.02-2.51-.11-5.05.09-7.55h0Z"/>
  <path class="cls-2" d="M381.31,15.72c2.98,0,5.95,0,8.93,0-.02,19.14.02,38.29-.02,57.43,10.39.05,20.78,0,31.17.02v7.65c-13.36.02-26.73,0-40.09.02,0-21.71-.02-43.41.01-65.12h0Z"/>
  <path class="cls-2" d="M234.65,15.73c2.88,0,5.77,0,8.65-.02,8.13,21.7,16.23,43.41,24.31,65.12-3.11,0-6.23,0-9.34.01-2.33-6.37-4.59-12.75-6.87-19.13-8.32-.03-16.64,0-24.96-.02-2.31,6.37-4.58,12.76-6.87,19.14-3.03.01-6.06.01-9.08,0,7.67-20.77,15.42-41.52,23.13-62.29.34-.93.69-1.86,1.03-2.8h0ZM238.87,25.6c-2.73,9.7-6.37,18.92-9.74,28.42,6.51,0,13.01,0,19.52,0-3.2-9.49-6.94-18.81-9.78-28.42h0Z"/>
  <path class="cls-1" d="M434.05,31.11c1.47-.11,2.96-.1,4.44-.11.01,1.74,0,3.49.02,5.23,5.54-.01,11.09,0,16.63-.01,0-1.73,0-3.45.01-5.18,1.5,0,3,0,4.5-.02.01,1.74.02,3.48.03,5.21,11.61-.01,23.23,0,34.84,0v28.85c-21.24-.03-42.48.02-63.72-.03.01-9.6,0-19.21.01-28.82,1.04,0,2.09-.01,3.13-.02.03-1.7-.02-3.41.11-5.1h0Z"/>
  <path class="cls-1" d="M553,31.11c1.46-.11,2.95-.1,4.43-.11v5.21c1.05,0,2.11.02,3.16.03.02,9.61,0,19.22.01,28.84-21.24-.03-42.48.02-63.72-.03.01-9.61,0-19.21,0-28.82,12.47-.01,24.94,0,37.41-.01-.01-1.73-.01-3.46-.01-5.19,1.51.02,3.01.02,4.52,0,0,1.73,0,3.46.01,5.19,4.69.01,9.38,0,14.07.01.02-1.7-.03-3.42.12-5.12h0Z"/>
  <path class="cls-2" d="M323.88,15.8c7.92-.17,15.86-.04,23.78-.05,5.61.06,12.35,1.08,16.35,5.4,4.02,4.19,4.19,11.55,2.93,16.85-1.36,4.73-5.07,6.99-9.47,8.5,4.07.99,7.76,2.39,10.41,5.79,2.86,3.65,2.86,8.82,2.61,13.23-.29,4.62-2.39,8.99-6.23,11.69-4.26,2.98-9.55,3.55-14.62,3.62-8.61.01-17.22,0-25.83,0,.06-21.64-.09-43.42.07-65.03h0ZM349.65,23.58c-5.62-.39-11.28-.18-16.91-.2.02,6.6,0,13.19,0,19.79,5.29-.07,10.61.16,15.88-.18,3-.27,6.15-.9,8.11-3.41,1.66-2.1,1.72-4.52,1.76-7.09-.07-2.13-.07-4.59-1.54-6.29-1.75-2.04-4.81-2.38-7.31-2.62h0ZM332.74,50.49c.02,7.53,0,15.06,0,22.58,5.95-.06,11.93.16,17.88-.15,3.2-.26,6.85-.74,8.99-3.42,1.91-2.31,1.78-5.19,1.76-8.03-.11-2.58-.43-5.44-2.31-7.39-2.39-2.4-6.18-3.09-9.42-3.37-5.62-.4-11.28-.16-16.91-.22h0Z"/>
  <path class="cls-1" d="M464.97,67.27c21.22-.11,42.45,0,63.67-.05.01,9.62.02,19.24-.01,28.86-21.2-.02-42.41.01-63.61-.02-.04-9.59.03-19.19-.05-28.79h0Z"/>
  <path d="M.25,112.86c5.3-.24,10.63-.02,15.93-.07,0,.82.01,1.65.01,2.48-2.18,0-4.36.02-6.55.02-.01,6.33.02,12.67-.02,19-.97-.04-1.94-.05-2.92-.02-.01-6.33,0-12.66-.01-18.99-2.23.01-4.46,0-6.69-.02.07-.8.15-1.6.25-2.4H.25Z"/>
  <path d="M21.17,112.89c.96-.09,1.91-.16,2.87-.2v9.07c3.34,0,6.67,0,10.01-.01-.01-3,0-6.01,0-9.01.99,0,1.97.03,2.95.07-.04,7.15,0,14.3-.02,21.44-.98,0-1.96,0-2.93,0-.01-3.3-.01-6.61-.01-9.91-3.33-.01-6.66-.01-9.99,0,0,3.3,0,6.6,0,9.9-.98,0-1.96,0-2.94-.01.07-7.11-.12-14.25.07-21.35h0Z"/>
  <path d="M43.94,112.84c4.43-.2,8.88,0,13.31-.06,0,.84-.02,1.67-.04,2.5h-10.4c0,2.24-.02,4.47-.02,6.71,3.26,0,6.52,0,9.77,0,.03.84.05,1.68.07,2.52-3.28,0-6.56,0-9.84.02,0,2.41.01,4.82.01,7.23,3.54,0,7.08,0,10.62,0v2.52c-4.52,0-9.04,0-13.56,0,.07-7.13-.12-14.29.08-21.42h0Z"/>
  <path d="M73.34,112.77c4.43,0,8.86,0,13.29,0,0,.84,0,1.67.02,2.51-3.46.01-6.91,0-10.37,0v7.2c3.25.01,6.5.01,9.76.04,0,.83-.03,1.66-.04,2.5-3.24,0-6.48,0-9.72,0v9.25c-.98,0-1.96,0-2.94-.02.01-7.15.01-14.31,0-21.47h0Z"/>
  <path d="M105.42,112.72c.96.01,1.93.02,2.89.04-.22,5.56.54,11.48-.52,16.94-1.34,5.08-7.18,5.68-11.4,4.18-2.58-1.13-3.68-3.67-3.9-6.34-.34-4.9-.06-9.85-.14-14.76l2.93-.03c.05,4.52-.11,9.05.05,13.57.15,1.97.48,4.1,2.41,5.11,2.6,1.08,6.27.65,7.17-2.45,1-5.08.17-10.58.54-15.76l-.03-.5h0Z"/>
  <path d="M113.26,112.86c5.29-.24,10.62-.02,15.93-.07-.01.82-.01,1.65-.01,2.48-2.18,0-4.36.02-6.54.02,0,6.32.01,12.64-.01,18.97-.98-.03-1.95-.02-2.92.03-.02-6.33-.02-12.66-.01-19-2.24,0-4.48-.03-6.72-.03.08-.8.17-1.6.28-2.4h0Z"/>
  <path d="M133.87,112.77c.97,0,1.95,0,2.92,0,.15,5.15-.33,10.43.3,15.54.54,4.01,6.07,4.73,8.53,2.18,1.03-1.34,1.2-3.37,1.26-5.01.08-4.25-.02-8.5.02-12.75l2.94.05c-.27,5.64.6,11.72-.66,17.24-1.41,4.65-6.78,5.2-10.8,4.04-2.86-.95-4.19-3.71-4.39-6.54-.31-4.91-.04-9.85-.12-14.76h0Z"/>
  <path d="M177.94,112.84c4.42-.2,8.86,0,13.29-.07,0,.84,0,1.67,0,2.51h-10.43c-.01,2.24-.01,4.47-.02,6.71,3.26,0,6.52,0,9.78-.02.02.84.04,1.68.05,2.52-3.27.02-6.55.01-9.82.02,0,2.41,0,4.82,0,7.23,3.55,0,7.1,0,10.65,0,0,.83-.02,1.66-.03,2.5h-13.55c.07-7.13-.12-14.28.08-21.41h0Z"/>
  <path d="M230.35,112.77c4.43,0,8.86,0,13.29,0v2.51c-3.46.01-6.91,0-10.36,0-.01,2.4,0,4.81,0,7.21,3.25,0,6.5,0,9.75,0,0,.84-.02,1.68-.03,2.51-3.25,0-6.49,0-9.74,0,.01,3.08.01,6.16.02,9.25-.98,0-1.97,0-2.95-.02,0-7.16,0-14.32,0-21.48h0Z"/>
  <path d="M272.49,114.21l-1.36,2.02c-2.88-.58-5.26-1.97-8.17-.46-1.92.89-2.25,3.72-.49,4.93,2.65,1.4,6.18,1.58,8.71,3.23,3.37,2.32,2.54,8.37-1.27,9.83-4.15,1.67-8.18.63-11.86-1.61l1.49-2.35c2.96,1.4,5.6,2.96,8.96,1.61,2.13-.98,2.49-3.98.64-5.41-2.67-1.45-6.26-1.54-8.76-3.25-2.89-2.1-2.54-7.23.55-9.01,3.84-2.26,7.77-1.26,11.56.47h0Z"/>
  <path d="M315.15,114.17l-1.34,2.23c-2.74-.99-5.09-2.02-7.93-.71-2.08.72-2.5,4.04-.53,5.09,2.71,1.35,6.27,1.54,8.74,3.27,3.13,2.3,2.36,8.16-1.28,9.62-4.19,1.84-8.14.68-11.95-1.39.44-.84.9-1.67,1.37-2.5,3.03,1.4,5.84,3.1,9.23,1.52,2.17-1.08,2.19-4.64-.09-5.58-2.53-1.15-5.77-1.38-8.11-2.87-3.09-2.08-2.68-7.45.56-9.21,3.78-2.11,7.63-1.16,11.33.53h0Z"/>
  <path d="M320.25,112.86c5.3-.24,10.63-.02,15.93-.07,0,.82,0,1.65,0,2.48-2.18,0-4.36.02-6.55.02,0,6.32.01,12.65,0,18.98-.98,0-1.95,0-2.93-.02,0-6.32.01-12.64,0-18.97-2.23.01-4.46,0-6.69-.02.07-.8.15-1.6.25-2.4h0Z"/>
  <path d="M361.6,112.76c.98,0,1.96,0,2.94.03-.02,7.15,0,14.31,0,21.47-.98,0-1.96,0-2.94,0,0-7.17,0-14.33,0-21.49h0Z"/>
  <path d="M371.6,112.71c1.13.03,2.25.08,3.38.14,3.4,5.76,6.82,11.56,9.94,17.47-.08-5.85-.02-11.7-.05-17.55.91,0,1.83,0,2.74,0-.03,7.17.01,14.34-.02,21.5-1.15-.02-2.29-.04-3.43-.05-3.25-5.86-6.86-11.54-9.88-17.51.05,5.85.04,11.7.02,17.56l-2.71-.05c0-7.17-.01-14.34,0-21.52h0Z"/>
  <path d="M437.6,112.77h2.93c-.01,6.33-.01,12.65.01,18.97,3.43,0,6.86,0,10.29.02,0,.83.01,1.66.01,2.48-4.41.02-8.83.01-13.24,0-.01-7.15-.01-14.31,0-21.47h0Z"/>
  <path d="M455.93,112.84c4.43-.2,8.88,0,13.31-.06v2.49c-3.48.02-6.95.02-10.43,0-.01,2.24-.01,4.47-.02,6.71,3.27,0,6.53,0,9.8,0,.01.83.03,1.66.04,2.49-3.28.04-6.55.04-9.83.04v7.23c3.54,0,7.08,0,10.62,0,0,.84,0,1.68.02,2.51-4.53,0-9.05,0-13.58,0,.06-7.14-.11-14.29.07-21.42h0Z"/>
  <path d="M528.61,112.79c.97-.02,1.94-.04,2.91-.05.03,7.17.02,14.35,0,21.53-.97,0-1.95-.02-2.93-.04.01-7.15-.02-14.3.02-21.44h0Z"/>
  <path d="M538.6,112.77c.98,0,1.95,0,2.93,0,0,6.33-.01,12.65,0,18.98,3.44,0,6.87,0,10.3,0v2.49c-4.41.01-8.82.01-13.23.02-.02-7.17-.01-14.33,0-21.49h0Z"/>
  <path d="M579.37,112.73c.97,0,1.94.03,2.91.04v21.46c-.98.02-1.96.03-2.93.04.01-7.18-.03-14.36.02-21.54h0Z"/>
  <path d="M589.18,112.82c1.08-.08,2.15-.1,3.24-.06,3.41,5.81,6.91,11.63,10.01,17.61-.13-5.86-.05-11.73-.07-17.6h2.75c-.02,7.16.01,14.33-.02,21.5-1.13,0-2.27,0-3.4-.04-3.29-5.85-6.89-11.55-9.93-17.54.13,5.85.04,11.7.07,17.55-.91.01-1.82.02-2.73.03.08-7.14-.13-14.31.08-21.45h0Z"/>
  <path d="M627.54,114.53c-.46.8-.94,1.59-1.42,2.38-2.97-1.51-5.84-2.69-9.05-.96-2.66,1.61-2.66,4.78-2.73,7.54.07,2.8.11,5.87,2.78,7.5,2.59,1.58,5.14.72,7.88.2-.01-2.06-.02-4.13-.02-6.2-1.6,0-3.2-.02-4.8-.03l.05-2.5h7.69c-.01,3.44-.01,6.89.03,10.34-5.03,2.5-13.07,3.1-15.67-3.07-1.24-3.68-1.33-9.61.34-13.17,2.96-5.38,10.29-4.82,14.92-2.03h0Z"/>
  <path d="M278.87,112.75l2.94.05c.13,5.14-.35,10.42.28,15.52.58,3.84,5.3,4.56,8.06,2.64,1.48-1.24,1.65-3.67,1.73-5.47.08-4.25-.02-8.5.02-12.74l2.92.03c-.26,5.71.68,11.95-.72,17.5-1.56,4.47-6.78,4.91-10.72,3.78-2.89-.96-4.17-3.67-4.38-6.54-.32-4.91-.06-9.86-.13-14.77h0Z"/>
  <path d="M505.87,112.74l2.93.06c.14,5.14-.35,10.42.29,15.52.52,4.01,6.07,4.73,8.54,2.19,1.18-1.65,1.23-4.02,1.27-5.97.03-3.94-.03-7.87,0-11.8l2.93.06c-.26,5.65.63,11.75-.66,17.27-1.48,4.66-6.75,5.14-10.8,4-2.89-.97-4.13-3.68-4.38-6.54-.31-4.91-.05-9.87-.12-14.79h0Z"/>
  <path d="M556.94,112.85c3.55-.12,7.42-.4,10.88.52,3.57,1.24,5.05,4.51,5.15,8.1.13,4.2.34,9.12-3.75,11.6-3.5,1.86-8.5.98-12.37,1.19.09-7.14-.12-14.29.09-21.41h0ZM559.87,115.37c-.21,5.43-.02,10.9-.05,16.34,3.14-.17,7.48.61,9.27-2.73,1.33-2.9,1.2-7.26.31-10.28-1.52-3.95-6.1-3.42-9.53-3.33h0Z"/>
  <path d="M156.6,112.78c3.79.25,9.13-.88,12.39,1.33,3.7,2.97,2.66,8.53-1.28,10.82,1.37,3.11,2.77,6.21,4.14,9.32h-3.15c-1.29-2.99-2.58-5.99-3.88-8.98-1.76,0-3.52,0-5.28,0,0,3.01,0,6.02,0,9.03-.97-.05-1.95-.06-2.93-.04,0-7.16,0-14.32,0-21.47h0ZM159.53,115.25c0,2.53,0,5.06,0,7.59,2.24-.08,4.75.19,6.91-.5,2.81-1.11,2.44-6.57-.85-6.85-1.99-.29-4.05-.22-6.07-.24h0Z"/>
  <path d="M212.84,112.72c4.33-.96,9,.73,10.44,5.2.94,3.68,1.03,8.46-.33,12.03-2.49,6.01-12.47,6.23-15.34.47-1.57-3.21-1.31-7.44-.93-10.91.49-3.4,2.77-6.04,6.16-6.79h0ZM212.05,115.92c-2.27,1.46-2.56,4.09-2.68,6.56-.04,2.43-.09,5.72,1.58,7.67,2.63,2.96,8.29,2.18,9.44-1.84.81-2.72.8-6.9-.01-9.62-1.1-3.52-5.33-4.48-8.33-2.77h0Z"/>
  <path d="M345.84,112.86c.89-.09,1.78-.14,2.68-.15,2.79,7.16,5.39,14.41,8.1,21.6-1.05-.08-2.1-.12-3.15-.1-.74-2.09-1.45-4.18-2.2-6.26-2.75-.01-5.51-.02-8.27-.02-.72,2.05-1.39,4.2-2.31,6.16l-2.95.3c2.69-7.16,5.16-14.47,8.1-21.53h0ZM347.08,116.1c-.3.98-.61,1.95-.92,2.92-.71,2.15-1.48,4.27-2.25,6.39h6.45c-1.1-3.1-2.21-6.2-3.28-9.31h0Z"/>
  <path d="M400.55,112.88c.9-.1,1.81-.15,2.73-.17,2.77,7.15,5.35,14.37,8.09,21.52-1.04.02-2.07.03-3.1.03-.75-2.11-1.51-4.2-2.26-6.31-2.75-.01-5.5-.01-8.25-.02-.74,2.12-1.53,4.22-2.27,6.35-.99-.01-1.98-.03-2.98-.05,2.72-7.1,5.16-14.33,8.04-21.35h0ZM401.85,116.07c-.96,3.15-2.07,6.25-3.2,9.34h6.48c-1.12-3.1-2.24-6.2-3.28-9.34h0Z"/>
  <path d="M416.59,112.78c3.63.08,7.55-.36,11.1.47,4.41,1.26,4.58,8.05.26,9.67,5.31,1.17,5.49,8.77.88,10.74-3.84,1.08-8.26.43-12.23.59-.02-7.16,0-14.31,0-21.47h0ZM419.54,115.25c-.01,2.21,0,4.42-.01,6.63,2.25-.1,4.81.2,6.97-.52,1.9-.47,2.07-4.45.73-5.43-2.26-.99-5.25-.55-7.69-.68h0ZM419.54,124.19c-.01,2.51-.01,5.03-.01,7.54,2.71-.12,6.06.39,8.56-.78,1.34-1.32,1.29-4.56-.14-5.79-2.35-1.33-5.79-.83-8.41-.97h0Z"/>
  <path d="M485.17,112.86c3.6-.15,7.42-.36,10.97.36,4.44,1.31,4.55,7.84.49,9.79,5.43,1.24,5.15,9.56.06,10.86-3.76.7-7.78.3-11.6.36.1-7.12-.11-14.26.08-21.37h0ZM488.05,115.25c0,2.21,0,4.43-.02,6.65,2.39-.24,5.98.49,7.92-1.15.84-1.3.77-3.29.09-4.65-2.25-1.24-5.49-.69-7.99-.85h0ZM488.04,124.18c0,2.52-.01,5.03,0,7.55,2.46-.05,5.08.18,7.49-.36,2.48-.33,2.4-4.53,1.17-5.96-2.15-1.7-6.08-1.02-8.67-1.23h0Z"/>
</svg>